<?xml version="1.0" encoding="utf-8"?>
<!-- Generator: Adobe Illustrator 20.0.0, SVG Export Plug-In . SVG Version: 6.00 Build 0)  -->
<svg version="1.1" id="Capa_1" xmlns="http://www.w3.org/2000/svg" xmlns:xlink="http://www.w3.org/1999/xlink" x="0px" y="0px"
	 viewBox="0 0 48 48" style="enable-background:new 0 0 48 48;" xml:space="preserve">
<style type="text/css">
	.st0{fill:#FFFFFF;}
	.st1{fill:#999999;}
</style>
<path class="st0" d="M24,0C10.8,0,0,10.8,0,24s10.8,24,24,24s24-10.8,24-24S37.2,0,24,0z"/>
<path class="st1" d="M24,7.2c4,0,7.2,3.2,7.2,7.2S28,21.6,24,21.6s-7.2-3.2-7.2-7.2S20,7.2,24,7.2z"/>
<path class="st1" d="M24,41.3c-6,0-11.3-3.1-14.4-7.7c0.1-4.8,9.6-7.4,14.4-7.4s14.3,2.6,14.4,7.4C35.3,38.2,30,41.3,24,41.3z"/>
</svg>
