<?xml version="1.0" standalone="no"?>
<!DOCTYPE svg PUBLIC "-//W3C//DTD SVG 20010904//EN"
 "http://www.w3.org/TR/2001/REC-SVG-20010904/DTD/svg10.dtd">
<svg version="1.0" xmlns="http://www.w3.org/2000/svg"
 width="1024.000000pt" height="1024.000000pt" viewBox="0 0 1024.000000 1024.000000"
 preserveAspectRatio="xMidYMid meet">
<metadata>
Created by potrace 1.11, written by Peter Selinger 2001-2013
</metadata>
<g transform="translate(0.000000,1024.000000) scale(0.100000,-0.100000)"
fill="#000000" stroke="none">
<path d="M4866 9389 c-870 -52 -1729 -382 -2406 -924 -742 -595 -1269 -1416
-1491 -2326 l-33 -135 -120 -28 c-67 -16 -222 -57 -346 -92 -196 -56 -229 -68
-252 -94 -50 -55 -31 -136 45 -194 20 -15 69 -35 117 -47 73 -19 105 -21 284
-18 l201 4 -8 -90 c-15 -160 -1 -700 22 -870 67 -495 198 -926 411 -1356 166
-336 361 -626 636 -946 35 -42 37 -48 75 -260 119 -670 235 -1107 343 -1286
41 -68 339 -382 378 -398 18 -7 36 -8 55 -2 22 8 34 5 61 -14 61 -41 126 -52
194 -33 44 12 775 556 825 613 18 20 38 55 44 77 9 31 16 39 28 35 38 -15 307
-78 426 -100 279 -51 395 -60 780 -60 396 1 524 12 840 76 1408 283 2591 1269
3126 2606 228 569 335 1215 299 1813 -37 627 -179 1160 -458 1713 -58 115
-101 211 -96 216 5 4 74 50 154 103 236 157 327 271 318 398 -8 113 -77 165
-218 165 -112 0 -171 -21 -382 -135 -92 -49 -172 -90 -177 -90 -5 0 -41 40
-80 90 -234 293 -536 577 -852 803 -795 568 -1763 845 -2743 786z m777 -288
c443 -60 834 -177 1233 -370 537 -261 977 -610 1373 -1088 l51 -61 -52 -30
c-29 -16 -85 -47 -124 -68 l-71 -38 -80 70 c-91 78 -163 124 -255 162 -53 22
-78 26 -158 26 -79 0 -103 -4 -142 -23 -126 -61 -198 -200 -198 -378 l0 -65
-22 16 c-126 90 -264 140 -383 139 -92 -1 -146 -17 -216 -68 l-48 -34 -79 48
c-303 188 -690 319 -1064 360 -139 16 -442 14 -588 -4 -850 -99 -1576 -597
-1993 -1366 l-47 -86 -157 -6 c-332 -14 -766 -62 -1162 -128 -129 -21 -236
-37 -237 -36 -1 1 17 70 41 154 407 1416 1575 2508 3015 2817 434 93 934 114
1363 57z m3391 -1337 c4 -11 -6 -29 -32 -53 -21 -20 -323 -202 -670 -406 -347
-203 -632 -374 -632 -379 -1 -24 69 -112 109 -137 70 -45 86 -41 250 68 80 53
151 101 158 105 8 7 20 -18 42 -86 98 -306 26 -545 -168 -564 -70 -6 -170 27
-262 87 -92 61 -236 209 -304 314 -27 42 -54 77 -60 77 -15 0 -478 -275 -482
-287 -7 -19 88 -134 134 -163 52 -33 115 -40 142 -16 49 42 335 226 341 219
15 -15 60 -175 76 -267 28 -156 2 -312 -64 -396 -15 -19 -53 -48 -83 -63 -49
-26 -61 -28 -134 -24 -66 3 -94 10 -159 40 -157 73 -323 227 -451 416 -39 57
-74 100 -81 97 -7 -3 -134 -76 -283 -164 l-271 -159 39 -59 c44 -69 118 -140
166 -160 71 -29 86 -23 309 126 116 76 213 137 218 134 12 -8 65 -182 82 -273
9 -46 16 -131 16 -190 0 -159 -29 -249 -105 -330 -207 -222 -635 -16 -952 457
-42 62 -81 111 -87 109 -6 -3 -65 -37 -131 -76 l-120 -71 -15 22 c-8 13 -36
48 -62 79 l-47 57 149 82 c83 45 150 83 150 85 0 1 -18 56 -40 121 -111 334
-90 605 59 735 162 143 443 57 721 -219 89 -90 93 -95 75 -109 -22 -16 -275
-153 -373 -202 -50 -25 -67 -40 -78 -67 -8 -20 -14 -42 -12 -50 2 -10 78 27
258 127 140 77 259 144 263 149 5 4 -5 46 -22 93 -43 121 -62 226 -62 338 -1
170 49 278 152 332 49 26 61 29 134 24 96 -5 172 -33 277 -104 65 -44 238
-204 238 -221 0 -7 -67 -44 -260 -143 -113 -58 -150 -90 -150 -131 0 -10 2
-18 3 -18 2 0 107 57 234 128 l229 127 -13 34 c-26 63 -62 215 -69 287 -9 95
10 189 50 256 101 168 340 125 568 -104 38 -37 68 -72 68 -77 0 -5 -17 -18
-37 -29 -56 -29 -244 -130 -273 -146 -23 -13 -48 -61 -37 -72 2 -3 274 145
603 327 330 182 622 342 649 355 59 28 110 31 119 8z m-313 -856 c205 -409
335 -839 396 -1313 23 -177 26 -749 5 -915 -40 -318 -92 -551 -187 -835 -246
-740 -691 -1376 -1310 -1872 -980 -785 -2299 -1065 -3515 -743 -240 63 -221
53 -324 170 -149 169 -177 214 -246 401 l-29 77 472 182 c259 101 497 198 528
216 105 62 148 137 135 236 -8 55 -16 53 109 33 132 -22 455 -30 605 -16 625
61 1160 312 1600 751 369 368 601 794 709 1303 34 157 51 338 51 537 0 210 -9
307 -46 502 l-26 138 32 37 c79 89 116 226 108 399 l-5 103 56 -29 c173 -87
348 -79 450 20 116 113 149 320 88 556 l-23 89 130 87 130 87 18 -30 c10 -17
50 -94 89 -171z m-7481 -1428 c252 -61 450 -188 494 -317 22 -64 20 -80 -13
-122 -16 -20 -58 -81 -93 -136 -178 -274 -289 -551 -337 -839 l-17 -100 -27
102 c-65 243 -107 489 -128 757 -12 150 -8 643 6 665 8 14 17 13 115 -10z
m3272 -211 c96 -25 205 -132 244 -239 24 -67 22 -181 -5 -252 -48 -124 -39
-118 -983 -684 -473 -284 -880 -523 -904 -531 -32 -11 -71 -14 -132 -11 -107
5 -183 40 -254 115 -74 80 -101 149 -100 263 0 99 39 185 118 263 29 29 1718
1048 1770 1068 76 29 158 32 246 8z m-74 -2456 c103 -263 121 -342 91 -390
-25 -42 -143 -94 -604 -273 -258 -100 -484 -188 -501 -195 l-31 -13 -37 137
c-46 171 -108 442 -102 448 10 10 201 42 206 35 4 -4 31 -70 60 -147 59 -156
79 -185 124 -185 26 0 507 179 577 216 54 27 52 49 -17 226 -30 78 -51 144
-47 145 5 2 56 30 113 62 58 33 108 60 112 60 3 1 29 -56 56 -126z m-358 -103
c0 -5 -7 -7 -15 -4 -8 4 -15 8 -15 10 0 2 7 4 15 4 8 0 15 -4 15 -10z m-1640
-164 c205 -46 541 -55 756 -20 l42 6 16 -78 c97 -454 229 -852 325 -973 l29
-37 -379 -257 c-208 -142 -385 -260 -394 -263 -24 -10 -61 21 -118 99 -85 115
-125 188 -156 285 -58 178 -136 593 -196 1038 -30 230 -30 227 -7 220 9 -3 46
-12 82 -20z m1214 -44 c35 -26 84 -59 110 -72 25 -14 46 -27 46 -30 0 -4 -49
-25 -132 -55 -16 -6 -20 2 -89 183 -5 12 -6 22 -3 22 3 0 33 -22 68 -48z m136
-1398 c31 -49 24 -115 -16 -154 -33 -32 -696 -530 -746 -560 -60 -36 -122 -20
-171 43 l-26 34 422 306 c232 168 440 319 462 336 22 16 43 30 47 30 3 1 16
-15 28 -35z"/>
<path d="M4855 8932 c-159 -8 -291 -16 -293 -17 -4 -3 48 -1069 52 -1073 2 -1
168 5 370 15 l367 17 -7 151 c-4 82 -7 151 -8 151 0 1 -75 -3 -165 -8 -90 -5
-165 -7 -166 -6 -1 2 -6 24 -9 51 l-7 47 83 0 c46 0 114 3 152 7 l68 6 -7 141
c-4 78 -8 142 -9 142 0 1 -66 -2 -146 -6 -80 -4 -146 -7 -147 -6 0 0 -3 21 -4
46 l-4 45 159 8 c88 4 161 9 163 11 3 2 1 70 -3 150 l-7 146 -71 -1 c-39 -1
-201 -9 -361 -17z"/>
<path d="M5862 8334 l-363 -435 35 -14 c40 -17 355 -135 360 -135 1 0 20 25
41 55 20 30 38 55 39 55 0 0 60 -22 131 -49 l130 -49 -3 -70 -4 -70 54 -20
c29 -11 115 -43 191 -72 76 -29 139 -51 142 -49 8 8 26 1132 18 1139 -11 10
-381 150 -396 150 -7 -1 -175 -196 -375 -436z m428 -114 c-11 -69 -19 -139
-20 -156 l0 -32 -68 26 -69 25 86 133 c47 73 87 132 88 131 0 -1 -7 -58 -17
-127z"/>
<path d="M3695 8639 c-33 -4 -89 -18 -125 -32 -55 -21 -478 -222 -487 -231 -3
-2 454 -966 460 -973 6 -5 347 164 347 173 0 6 -29 71 -64 145 -35 74 -63 135
-61 137 2 2 64 -44 138 -102 75 -58 142 -106 150 -106 20 0 411 189 404 196
-18 18 -395 234 -409 234 -31 0 -29 20 6 62 46 53 59 96 54 171 -5 79 -43 161
-103 226 -79 84 -175 115 -310 100z m-6 -344 c16 -8 34 -28 41 -46 12 -27 11
-36 -1 -58 -13 -24 -73 -71 -89 -71 -8 0 -70 131 -70 147 0 9 49 32 88 42 2 1
16 -6 31 -14z"/>
<path d="M2177 7538 c-89 -111 -134 -175 -128 -182 4 -6 138 -220 296 -476
158 -256 291 -469 295 -473 6 -7 234 263 264 311 5 8 -8 32 -33 64 -25 31 -38
55 -33 62 52 68 167 206 174 206 4 0 33 -11 64 -25 32 -14 58 -24 60 -23 36
36 253 316 251 323 -3 7 -957 350 -1057 380 -10 2 -61 -54 -153 -167z m573
-376 c-1 -4 -20 -28 -43 -55 l-42 -47 -85 107 c-47 59 -90 114 -97 123 -6 9
51 -14 128 -52 76 -38 139 -72 139 -76z"/>
<path d="M8216 6758 c7 -74 -10 -201 -37 -274 -11 -28 -37 -70 -59 -94 -22
-24 -38 -45 -36 -48 3 -2 29 7 60 21 93 43 134 133 123 275 -6 76 -30 167 -48
178 -6 3 -7 -19 -3 -58z"/>
<path d="M7580 6280 c0 -75 -6 -151 -15 -189 -19 -78 -68 -173 -107 -206 -35
-30 -36 -39 0 -30 80 19 147 88 173 177 24 82 4 274 -36 348 -13 22 -14 12
-15 -100z"/>
<path d="M6872 5755 c0 -90 -6 -167 -16 -215 -21 -101 -76 -210 -128 -254 -23
-20 -39 -38 -37 -41 3 -2 21 0 40 5 95 27 167 100 195 196 32 112 12 323 -41
423 -12 23 -13 12 -13 -114z"/>
<path d="M7857 5073 c-4 -32 -9 -122 -13 -200 l-7 -143 49 0 c27 0 267 -14
533 -30 266 -17 486 -29 488 -26 4 4 33 388 29 392 -1 2 -1037 65 -1057 64
-13 0 -18 -14 -22 -57z"/>
<path d="M7788 4359 c-25 -52 -66 -140 -92 -196 l-48 -102 122 -168 c68 -92
135 -183 148 -201 24 -32 16 -28 -168 63 -106 53 -197 92 -201 88 -9 -10 -159
-330 -159 -340 0 -12 974 -466 978 -455 1 4 38 84 82 177 44 93 79 169 77 170
-1 1 -89 40 -195 87 l-193 85 48 6 c26 4 136 14 243 22 107 9 198 19 202 23
12 12 191 402 187 407 -3 2 -150 -19 -327 -47 -178 -27 -325 -48 -326 -46 -2
1 -72 113 -156 248 -84 135 -159 251 -166 259 -10 11 -20 -2 -56 -80z"/>
<path d="M7004 3128 c-76 -73 -139 -137 -139 -143 0 -15 716 -773 731 -774 14
-1 278 246 282 264 2 9 -479 527 -682 733 l-52 53 -140 -133z"/>
<path d="M6347 2644 c-67 -15 -568 -223 -563 -234 2 -3 97 -224 212 -492 115
-269 214 -488 219 -488 10 0 326 133 346 145 4 3 -18 62 -48 133 -30 70 -59
138 -64 151 -10 25 -2 19 180 -136 46 -40 89 -73 95 -73 16 0 416 173 415 179
0 11 -365 241 -402 253 l-36 13 39 39 c81 80 92 196 32 318 -82 168 -233 235
-425 192z m56 -342 c31 -34 39 -72 22 -99 -16 -24 -72 -63 -90 -63 -5 0 -24
34 -42 76 l-32 75 32 14 c44 20 91 18 110 -3z"/>
<path d="M4736 2089 c-3 -162 -7 -405 -9 -542 l-2 -247 171 0 c94 0 186 -3
203 -6 l31 -6 0 191 0 192 145 -3 145 -3 0 141 0 141 -140 5 c-77 3 -143 8
-146 11 -3 3 -2 26 1 52 l7 46 159 -7 159 -7 0 162 0 161 -193 0 c-107 0 -268
3 -359 7 l-166 6 -6 -294z"/>
<path d="M4113 5006 c-117 -55 -164 -197 -104 -314 41 -79 113 -122 204 -122
153 0 258 130 226 279 -31 146 -188 221 -326 157z"/>
<path d="M3511 4639 c-170 -52 -223 -271 -94 -390 47 -44 92 -61 158 -61 193
0 299 213 184 370 -51 69 -165 106 -248 81z"/>
<path d="M2833 4239 c-80 -39 -123 -111 -123 -204 0 -69 20 -119 67 -167 94
-97 265 -85 343 24 90 124 51 287 -85 349 -56 26 -148 25 -202 -2z"/>
<path d="M2783 2261 c-56 -31 -105 -59 -108 -62 -3 -4 15 -116 40 -250 46
-240 64 -319 73 -319 2 0 64 31 137 70 l132 70 6 -228 c3 -125 10 -243 15
-262 6 -19 11 -33 12 -30 12 32 126 786 119 788 -5 2 -9 15 -9 28 0 13 -3 24
-6 24 -3 0 -66 -32 -140 -71 l-134 -71 0 161 c0 112 -3 161 -11 161 -7 0 -9
10 -7 25 3 15 1 25 -6 24 -6 -1 -57 -26 -113 -58z"/>
</g>
</svg>
