<?xml version="1.0" standalone="no"?>
<!DOCTYPE svg PUBLIC "-//W3C//DTD SVG 20010904//EN"
 "http://www.w3.org/TR/2001/REC-SVG-20010904/DTD/svg10.dtd">
<svg version="1.0" xmlns="http://www.w3.org/2000/svg"
 width="1024.000000pt" height="1024.000000pt" viewBox="0 0 1024.000000 1024.000000"
 preserveAspectRatio="xMidYMid meet">
<metadata>
Created by potrace 1.11, written by Peter Selinger 2001-2013
</metadata>
<g transform="translate(0.000000,1024.000000) scale(0.100000,-0.100000)"
fill="#000000" stroke="none">
<path d="M5125 10180 c-1139 -98 -2154 -557 -2954 -1335 -552 -538 -954 -1176
-1196 -1900 -57 -169 -135 -450 -135 -486 0 -8 -4 -19 -8 -26 -4 -7 -108 -37
-231 -68 -237 -60 -509 -139 -552 -160 -31 -16 -49 -54 -49 -101 0 -44 12 -69
58 -117 74 -77 210 -103 500 -94 l194 5 -6 -31 c-14 -72 -18 -615 -7 -767 66
-866 331 -1628 813 -2342 98 -144 275 -373 369 -476 27 -30 49 -57 49 -61 0
-5 18 -110 40 -235 152 -853 293 -1340 441 -1512 22 -27 111 -120 197 -207
l157 -158 56 3 c44 2 62 -2 77 -16 46 -41 147 -57 225 -35 25 7 194 127 476
339 414 310 440 331 465 381 14 29 26 62 26 72 0 13 5 17 16 13 49 -19 400
-99 524 -120 319 -54 410 -61 815 -61 306 0 408 4 525 18 564 71 1051 210
1524 436 799 382 1496 1002 1972 1752 586 927 836 2043 699 3134 -49 390 -150
789 -292 1150 -52 131 -216 478 -280 590 l-29 50 171 114 c253 170 353 282
371 413 13 92 -54 193 -143 217 -130 36 -274 -4 -547 -153 l-180 -97 -25 33
c-189 243 -513 577 -738 761 -724 592 -1549 944 -2483 1058 -186 23 -728 34
-905 19z m4689 -1793 c24 -17 11 -43 -41 -85 -43 -33 -1398 -833 -1425 -840
-13 -3 -20 8 -32 49 -9 29 -16 60 -16 70 0 29 1431 815 1491 819 3 0 13 -6 23
-13z m-1663 -263 c-77 -64 -111 -168 -120 -359 l-6 -140 -25 70 c-35 98 -36
247 -2 320 13 27 33 61 45 74 24 26 92 60 120 61 15 0 12 -6 -12 -26z m-825
-374 c-90 -96 -125 -215 -127 -425 l0 -130 -18 40 c-48 108 -61 285 -28 381
29 84 96 150 177 175 44 13 44 10 -4 -41z m726 -376 c31 -64 31 -67 13 -80
-61 -45 -516 -304 -524 -299 -13 7 -41 100 -41 134 0 24 25 40 258 168 141 79
258 143 260 143 1 0 17 -30 34 -66z m-1682 -24 c-55 -57 -89 -123 -122 -236
-20 -68 -23 -102 -23 -251 0 -95 -3 -169 -7 -165 -17 18 -58 167 -68 248 -18
150 14 280 89 366 34 39 121 87 158 88 19 0 15 -7 -27 -50z m840 -459 l39 -79
-308 -181 c-169 -100 -310 -181 -314 -181 -10 0 -47 129 -47 164 0 31 5 34
293 193 160 90 293 163 294 163 2 0 21 -36 43 -79z m-975 -548 c22 -47 41 -89
43 -93 2 -4 -61 -45 -139 -91 l-142 -83 -24 30 c-13 16 -45 53 -70 83 -43 50
-45 54 -27 65 73 42 310 175 314 175 3 0 23 -38 45 -86z"/>
</g>
</svg>
