<?xml version="1.0" standalone="no"?>
<!DOCTYPE svg PUBLIC "-//W3C//DTD SVG 20010904//EN"
 "http://www.w3.org/TR/2001/REC-SVG-20010904/DTD/svg10.dtd">
<svg version="1.0" xmlns="http://www.w3.org/2000/svg"
 width="512.000000pt" height="512.000000pt" viewBox="0 0 512.000000 512.000000"
 preserveAspectRatio="xMidYMid meet">
<metadata>
Created by potrace 1.11, written by Peter Selinger 2001-2013
</metadata>
<g transform="translate(0.000000,512.000000) scale(0.100000,-0.100000)"
fill="#000000" stroke="none">
<path d="M2440 5107 c-29 -11 -1062 -625 -1210 -720 -55 -34 -65 -36 221 39
114 30 213 54 220 54 8 0 95 -162 209 -390 107 -215 196 -387 197 -383 1 4 14
118 28 253 14 135 28 269 32 299 l6 54 481 -6 c265 -3 598 -13 741 -21 280
-18 733 -53 799 -62 38 -6 39 -5 21 8 -11 8 -372 209 -803 447 -763 423 -784
433 -845 437 -37 3 -76 -1 -97 -9z"/>
<path d="M1435 4294 c-237 -61 -632 -144 -947 -200 l-266 -48 -7 -140 c-16
-328 -30 -648 -28 -650 2 -1 78 8 169 21 92 13 169 22 171 20 2 -2 -53 -568
-121 -1258 -68 -690 -123 -1255 -121 -1257 2 -2 92 6 202 17 188 20 545 48
663 54 l55 2 7 110 c9 129 46 525 55 573 5 30 9 33 89 58 146 44 554 119 568
103 2 -3 271 -600 290 -646 1 -1 76 25 167 57 203 72 454 148 611 187 65 15
117 31 115 35 -11 31 -1492 3008 -1496 3007 -4 -1 -82 -21 -176 -45z m-13
-1341 c99 -181 206 -432 223 -524 6 -34 5 -36 -33 -47 -89 -27 -268 -72 -286
-72 -18 0 -18 10 -13 258 3 167 11 300 23 380 9 67 19 122 20 122 1 0 31 -53
66 -117z"/>
<path d="M1430 2545 c0 -47 2 -85 4 -85 1 0 17 5 34 11 l31 10 -27 75 c-14 41
-29 74 -34 74 -4 0 -8 -38 -8 -85z"/>
<path d="M2226 4153 c-4 -32 -20 -187 -36 -345 l-29 -287 103 -214 104 -214
87 -6 c48 -3 89 -8 90 -9 2 -2 -4 -66 -12 -143 l-14 -140 381 -770 c210 -424
382 -774 383 -779 1 -5 -45 -19 -103 -31 -248 -53 -829 -230 -846 -257 -4 -6
-9 -44 -12 -83 l-4 -72 73 -11 c207 -33 479 -57 756 -68 l172 -7 5 24 c3 13
10 80 16 149 14 159 67 641 81 743 l11 77 32 0 c17 -1 166 -11 331 -24 165
-13 303 -21 306 -17 13 13 107 598 132 828 l5 42 -42 6 c-49 6 -355 32 -481
40 -49 3 -116 8 -149 11 l-59 6 7 127 c4 69 9 157 13 195 l6 69 106 -7 c240
-15 658 -58 980 -102 101 -13 186 -23 188 -20 17 16 62 262 93 504 22 170 65
670 59 676 -6 7 -564 63 -899 90 -614 52 -1101 76 -1526 76 l-301 0 -7 -57z"/>
<path d="M306 2768 c4 -211 8 -384 9 -386 3 -3 75 732 75 764 0 2 -20 4 -45 4
l-45 0 6 -382z"/>
<path d="M3620 2843 c0 -27 -3 -71 -6 -99 l-6 -50 233 -17 c209 -16 316 -26
458 -43 l44 -6 -7 -99 c-9 -131 -54 -436 -107 -733 l-43 -239 -90 7 c-50 3
-136 10 -191 15 -55 6 -161 13 -235 16 -74 4 -139 8 -144 9 -5 0 -11 -15 -13
-34 -2 -19 -15 -134 -29 -255 -26 -223 -33 -295 -55 -552 l-13 -143 -110 0
c-307 1 -1047 69 -1080 101 -5 4 -8 51 -7 104 l2 95 -26 -10 c-38 -14 -52 -12
-58 8 -9 28 -63 155 -100 234 -19 40 -56 120 -82 178 -26 58 -61 135 -78 173
l-31 67 -35 -6 c-104 -16 -266 -47 -343 -65 -67 -16 -88 -25 -88 -37 0 -9 -9
-111 -20 -227 -11 -115 -23 -274 -27 -352 l-6 -143 -38 0 c-21 0 -40 -4 -43
-9 -3 -5 281 -168 632 -362 l637 -354 86 0 87 0 1013 609 c558 335 1029 623
1047 640 36 33 59 71 73 120 7 24 -9 1364 -16 1374 -5 6 -651 83 -855 101
-124 11 -249 23 -277 26 l-53 5 0 -47z"/>
</g>
</svg>
