<?xml version="1.0" standalone="no"?>
<!DOCTYPE svg PUBLIC "-//W3C//DTD SVG 20010904//EN"
 "http://www.w3.org/TR/2001/REC-SVG-20010904/DTD/svg10.dtd">
<svg version="1.0" xmlns="http://www.w3.org/2000/svg"
 width="512.000000pt" height="512.000000pt" viewBox="0 0 512.000000 512.000000"
 preserveAspectRatio="xMidYMid meet">
<metadata>
Created by potrace 1.11, written by Peter Selinger 2001-2013
</metadata>
<g transform="translate(0.000000,512.000000) scale(0.100000,-0.100000)"
fill="#000000" stroke="none">
<path d="M2433 5107 c-34 -13 -1244 -739 -1239 -744 4 -4 109 22 315 76 84 23
159 41 165 41 7 0 100 -178 207 -395 107 -218 195 -390 196 -383 2 7 12 101
23 208 12 107 23 209 25 225 1 17 6 63 10 103 l8 72 346 0 c509 0 1125 -32
1666 -86 58 -6 40 5 -710 421 -423 235 -792 438 -820 451 -55 26 -137 31 -192
11z"/>
<path d="M1535 4319 c-248 -67 -794 -182 -1159 -244 -82 -14 -151 -27 -153
-29 -4 -3 -43 -789 -40 -793 1 -1 79 9 172 22 93 13 170 23 172 22 1 -1 -54
-567 -123 -1256 -68 -690 -122 -1257 -119 -1259 2 -3 104 5 226 18 122 12 328
29 458 38 l236 17 17 210 c18 220 47 497 53 503 28 28 634 150 649 131 1 -2
67 -148 146 -324 78 -176 144 -321 145 -322 1 -2 64 20 141 47 191 69 429 143
603 186 80 21 147 38 149 40 5 3 -1491 3014 -1497 3013 -3 0 -37 -9 -76 -20z
m-50 -1494 c73 -147 165 -381 165 -420 0 -11 -223 -79 -306 -92 l-36 -6 4 239
c3 143 12 297 23 383 l18 143 24 -38 c13 -22 62 -115 108 -209z"/>
<path d="M1430 2545 l0 -85 28 6 c15 4 31 10 35 14 9 8 -42 150 -54 150 -5 0
-9 -38 -9 -85z"/>
<path d="M2237 4213 c-8 -12 -28 -185 -57 -484 l-21 -217 105 -209 105 -210
47 -7 c26 -3 67 -6 91 -6 37 0 44 -3 39 -17 -2 -10 -10 -74 -17 -143 l-12
-125 386 -778 c356 -719 384 -777 364 -782 -12 -2 -75 -16 -140 -30 -154 -34
-379 -99 -608 -176 -101 -34 -186 -63 -188 -65 -2 -2 -7 -38 -10 -80 -6 -70
-5 -77 14 -84 62 -23 521 -67 798 -77 l192 -6 28 289 c27 271 76 696 81 701 1
2 126 -6 277 -17 151 -11 301 -21 333 -23 l60 -2 8 40 c21 98 89 515 108 664
16 119 18 166 10 171 -11 7 -254 29 -560 51 -85 6 -156 13 -158 14 -4 4 19
379 24 384 10 11 684 -54 1033 -100 128 -17 237 -27 241 -22 13 13 67 304 89
483 24 191 47 427 57 586 l7 111 -44 7 c-169 24 -994 97 -1369 121 -534 34
-1302 56 -1313 38z"/>
<path d="M326 3152 l-29 -4 6 -291 c4 -161 7 -339 8 -397 0 -58 2 -100 4 -95
5 14 43 395 55 552 5 71 13 153 16 183 7 61 8 59 -60 52z"/>
<path d="M3620 2852 c0 -22 -3 -66 -6 -99 l-6 -59 173 -13 c96 -7 259 -21 364
-32 104 -10 191 -19 192 -19 8 0 1 -105 -17 -251 -17 -137 -65 -431 -122 -753
l-12 -68 -76 5 c-41 3 -122 10 -180 16 -58 5 -163 12 -235 16 -71 3 -142 8
-156 11 -23 4 -26 2 -27 -23 0 -15 -13 -131 -27 -258 -15 -126 -37 -336 -49
-465 l-21 -235 -80 -3 c-90 -4 -407 12 -595 29 -134 12 -485 58 -507 66 -10 4
-13 31 -13 104 l0 99 -27 -11 c-14 -5 -32 -8 -38 -5 -7 2 -27 40 -45 83 -18
43 -57 132 -87 198 -79 173 -106 231 -143 313 -33 70 -35 72 -64 67 -177 -29
-228 -38 -320 -59 -59 -13 -108 -25 -111 -27 -5 -6 -45 -449 -53 -604 l-7
-130 -47 -3 c-27 -2 -48 -6 -48 -10 1 -13 1275 -710 1319 -722 50 -13 110 -6
162 21 20 10 479 284 1020 610 600 360 1001 607 1026 632 79 76 77 48 63 811
-7 369 -14 672 -15 674 -3 3 -494 67 -590 77 -22 2 -141 13 -265 24 -124 12
-249 23 -277 26 l-53 5 0 -38z"/>
</g>
</svg>
